<?xml version="1.0" encoding="utf-8"?>
<!-- Generator: Adobe Illustrator 16.0.5, SVG Export Plug-In . SVG Version: 6.00 Build 0)  -->
<!DOCTYPE svg PUBLIC "-//W3C//DTD SVG 1.1//EN" "http://www.w3.org/Graphics/SVG/1.1/DTD/svg11.dtd">
<svg version="1.1" xmlns="http://www.w3.org/2000/svg" xmlns:xlink="http://www.w3.org/1999/xlink" x="0px" y="0px" width="896px"
	 height="979px" viewBox="0 0 896 979" enable-background="new 0 0 896 979" xml:space="preserve">
<g id="publishing">
	<g id="Layer_3">
		<g id="npm-wombat_2_">
			<g>
				<g id="body__x2B__legs_2_">
					<g id="body_1_">
						<g id="body_2_">
							<path id="body_6_" fill="#986844" d="M630.318,616.913c-33.082-68.965-100.773-123.294-180.117-123.294
								c-79.34,0-147.029,54.329-180.115,123.293c-33.082,68.967-33.111,151.595-33.111,151.595
								c72.065,48.734,213.229,52.607,213.229,52.607s141.189-3.888,213.233-52.607C663.432,768.508,663.4,685.879,630.318,616.913z
								"/>
							<g id="body_shadow_2_">
								<path fill="#895D3D" d="M323.507,803.611c-82.104-74.211-31.063-206.329-31.063-206.329l23.784-33.096
									c0,0-8.013,2.636-15.596,4.85c-12.068,14.665-22.371,30.819-30.552,47.874c-30.823,64.255-32.951,140.357-33.102,150.454
									c0,0.02,0,0.036,0,0.054c-0.002,0.129-0.003,0.241-0.004,0.347c0,0.022,0,0.044,0,0.063
									c-0.002,0.087-0.003,0.172-0.003,0.244c0,0.04-0.001,0.07-0.001,0.102c0,0.048,0,0.093,0,0.131s0,0.067,0,0.091
									c0,0.063,0,0.109,0,0.109C260.797,784.619,292.177,795.826,323.507,803.611L323.507,803.611z"/>
								<path fill="#895D3D" d="M576.928,803.611c82.105-74.211,31.062-206.329,31.062-206.329l-23.783-33.098
									c0,0,8.015,2.636,15.598,4.849c12.066,14.664,22.368,30.82,30.549,47.875c30.82,64.253,32.955,140.356,33.105,150.453
									c0,0.023,0.001,0.037,0.001,0.059c0.003,0.128,0.003,0.238,0.006,0.343c0,0.023,0,0.041,0,0.064
									c0.002,0.09,0.002,0.172,0.002,0.244c0,0.038,0.002,0.073,0.002,0.103c0,0.047,0.001,0.092,0.001,0.134
									c0,0.036,0,0.063,0,0.087c0,0.064,0,0.109,0,0.109C639.638,784.619,608.261,795.826,576.928,803.611L576.928,803.611z"/>
							</g>
						</g>
						<g id="belly_2_">
							<path fill="#B78563" d="M450.189,658.024c-90.773,0-169.628,25.736-209.479,63.533c-3.73,27.687-3.738,46.95-3.738,46.95
								c72.066,48.734,213.229,52.607,213.229,52.607s141.188-3.887,213.23-52.607c0,0-0.01-19.247-3.732-46.916
								C619.854,683.774,540.981,658.024,450.189,658.024z"/>
							<g id="belly_shadow_1_">
								<path fill="#A57859" d="M323.442,803.596c0,0-43.234-33.395-46.48-107.623c0,0-26.349,14.397-36.254,25.618
									c-3.726,27.669-3.732,46.913-3.732,46.913C260.781,784.607,292.131,795.81,323.442,803.596
									C323.44,803.596,323.44,803.596,323.442,803.596z"/>
								<path fill="#A57859" d="M576.961,803.596c0,0,43.23-33.395,46.477-107.623c0,0,26.348,14.397,36.256,25.618
									c3.725,27.669,3.73,46.913,3.73,46.913C639.623,784.609,608.272,795.81,576.961,803.596L576.961,803.596z"/>
							</g>
						</g>
					</g>
					<g id="legs_2_">
						<g id="leg_4_">
							<path fill="#986844" d="M361.295,714.852c0-0.002,0-0.002,0-0.003c-12.233-22.109-38.263-37.368-68.396-37.368
								c-41.887,0-75.841,29.487-75.841,65.855c0,31.961,26,60.852,59.953,66.081c33.955,5.229,100.191,4.681,100.191,4.681
								C393.473,802.203,375.209,739.569,361.295,714.852z"/>
							<g id="shadow_6_">
								<path fill="#895D3D" d="M292.898,810.331c-95.065-56.237-16.033-131.351-16.004-131.377
									c-34.203,6.377-59.836,32.777-59.836,64.387c0,31.956,26,60.847,59.953,66.076c5.272,0.812,11.322,1.485,17.782,2.042
									C294.174,811.09,293.546,810.714,292.898,810.331z"/>
								
									<ellipse transform="matrix(-0.5 -0.866 0.866 -0.5 -262.0485 1415.2288)" fill="#895D3D" cx="277.514" cy="783.261" rx="26.581" ry="23.764"/>
							</g>
							<g>
								
									<ellipse transform="matrix(-0.5 -0.866 0.866 -0.5 -262.1028 1425.9502)" fill="#7A5336" cx="280.58" cy="788.637" rx="26.579" ry="23.766"/>
								
									<ellipse transform="matrix(-0.5 -0.866 0.866 -0.5 -262.1823 1436.858)" fill="#AF7146" cx="283.695" cy="794.115" rx="16.113" ry="14.405"/>
							</g>
						</g>
						<g id="leg_2_">
							<path fill="#986844" d="M540.458,714.852c0-0.002,0-0.002,0.003-0.003c12.232-22.109,38.26-37.368,68.393-37.368
								c41.887,0,75.841,29.487,75.841,65.855c0,31.961-26.002,60.852-59.951,66.081c-33.952,5.229-100.195,4.681-100.195,4.681
								C508.281,802.203,526.544,739.569,540.458,714.852z"/>
							<g id="shadow_5_">
								<path fill="#895D3D" d="M608.854,810.331c95.064-56.237,16.031-131.351,16.003-131.377
									c34.199,6.377,59.833,32.777,59.833,64.387c0,31.956-26.001,60.847-59.95,66.076c-5.273,0.812-11.321,1.485-17.781,2.042
									C607.579,811.09,608.207,810.714,608.854,810.331z"/>
								
									<ellipse transform="matrix(-0.5 0.866 -0.866 -0.5 1614.7227 634.2617)" fill="#895D3D" cx="624.27" cy="783.251" rx="26.579" ry="23.765"/>
							</g>
							<g>
								
									<ellipse transform="matrix(-0.5 0.866 -0.866 -0.5 1614.8857 645.1229)" fill="#7A5336" cx="621.215" cy="788.731" rx="26.577" ry="23.766"/>
								
									<ellipse transform="matrix(-0.5 0.866 -0.866 -0.5 1614.8187 655.8979)" fill="#AF7146" cx="618.065" cy="794.114" rx="16.113" ry="14.406"/>
							</g>
						</g>
					</g>
				</g>
			</g>
			<g id="arms_2_">
				<g>
					<rect x="305.237" y="647.458" fill="#DA9A5B" width="265.284" height="198.962"/>
					<polygon opacity="0.05" enable-background="new    " points="572.02,746.938 472.539,846.421 572.02,846.421 					"/>
					<polygon fill="#E5B486" points="467.67,647.457 519.709,647.457 511.966,735.857 461.801,717.799 					"/>
					<g id="Page_1_1_">
						<path id="Rectangle_1_1_" fill="#191009" d="M381.986,737.819h114.788v38.571h-57.396v6.199h-25.481v-6.199h-31.908
							L381.986,737.819L381.986,737.819z M388.483,769.842h12.679v-19.268h6.376v19.268h6.319V744.36h-25.374V769.842
							L388.483,769.842z M420.172,744.247l0.078,32.141h12.626v-6.412h12.784v-25.731h-25.485L420.172,744.247L420.172,744.247z
							 M432.722,750.445h6.656v13.086h-6.656V750.445z M452.083,744.247v25.482h12.702v-19.132h6.354v19.135h6.345v-19.054h6.358
							v19.054h6.353v-25.484L452.083,744.247L452.083,744.247z"/>
					</g>
				</g>
			</g>
			<g id="arm_7_">
				<path id="arm_8_" fill="#986844" d="M660.773,636.27c27.01,52.505,18.39,64.416,0.904,88.65
					c-6.293,8.722-64.973,61.39-139.26,61.39c0-51.312,32.874-126.265,32.874-126.265S619.219,555.479,660.773,636.27z"/>
				<path opacity="0.1" enable-background="new    " d="M522.418,786.308c74.287,0,132.967-52.667,139.261-61.39
					c17.483-24.234,26.104-36.144-0.905-88.65c-0.525-1.023-1.061-1.998-1.594-2.962C659.263,634.103,668.738,730.3,522.418,786.308
					z"/>
			</g>
			<g id="npm_-_wombat_-_face_1_">
				<path opacity="0.1" enable-background="new    " d="M381.092,304.306c-62.943,63.294-98.022,154.605-98.022,154.605
					c10.314,36.888,35.867,68.071,64.824,93.061c-0.005-0.009-0.011-0.018-0.015-0.028c54.439,46.995,120.944,72.11,120.944,72.11
					s66.203,25.822,138.088,27.327c0,0-0.004,0.002-0.007,0.003c6.465,0.139,12.935,0.078,19.394-0.218
					c31.675-1.446,64-8.361,91.051-25.571c1.429-3.746,2.721-7.545,3.988-11.349c7.847-23.544,14.068-47.676,18.716-72.05
					c6.269-32.866,9.765-66.611,7.717-100.077c-1.957-31.946-9.114-63.651-21.821-93.061c1.589-9.659,5.55-39.918-1.509-68.323
					l-36.292,7.956c-16.753-18.999-37.134-34.77-60.124-45.489c-30.473-14.209-64.541-18.988-97.854-15.125l0.013-0.012v-0.005
					h0.002c-0.002,0-0.002,0-0.002,0l-21.648-30.19c-24.269,16.4-41.578,41.561-46.848,49.784
					C432.172,261.182,404.604,280.663,381.092,304.306C318.148,367.6,404.604,280.665,381.092,304.306z"/>
				<g id="ears_1_">
					<g id="ear_3_">
						<path fill="#986844" d="M461.745,237.23l42.681,4.382l27.506-26.689l-21.648-30.195
							C480.939,204.56,461.745,237.23,461.745,237.23z"/>
						<polygon fill="#895D3D" points="504.932,223.074 510.283,184.728 531.932,214.923 525.688,220.983 						"/>
					</g>
					<g id="ear_2_">
						<path fill="#986844" d="M727.135,339.089L692.48,313.79l-2.583-38.24l36.295-7.956
							C734.73,301.968,727.138,339.09,727.135,339.089z"/>
						<polygon fill="#895D3D" points="704.508,299.675 726.191,267.596 689.898,275.553 690.481,284.234 						"/>
					</g>
				</g>
				<path id="head_1_" fill="#986844" d="M284.844,445.782c29.708,106.231,185.731,165.134,185.731,165.134
					s155.373,60.616,248.525,1.54c0,0,35.02-91.332,30.586-180.486c-4.435-89.151-50.319-175.654-131.109-206.661
					c-80.789-31.008-172.767,2.579-235.708,65.871C319.929,354.475,284.842,445.783,284.844,445.782z"/>
				<g id="nose_1_">
					
						<ellipse id="nose_3_" transform="matrix(0.9336 0.3583 -0.3583 0.9336 238.4203 -135.2291)" fill="#895D3D" cx="484.1" cy="575.717" rx="68.409" ry="33.095"/>
					
						<ellipse id="nose_2_" transform="matrix(0.9336 0.3583 -0.3583 0.9336 236.4447 -136.4536)" cx="486.411" cy="569.765" rx="68.41" ry="33.091"/>
				</g>
				<g id="face_1_">
					<g id="eyes_1_">
						<g id="eye_2_">
							<path fill="#B78563" d="M585.221,546.32c7.681,2.946,11.516,11.558,8.57,19.236c-2.948,7.679-11.562,11.512-19.24,8.567
								c-7.678-2.948-11.515-11.559-8.568-19.237C568.931,547.205,577.544,543.37,585.221,546.32z"/>
							<circle cx="576.271" cy="561.744" r="11.147"/>
							<circle fill="#FFFFFF" cx="576.358" cy="558.807" r="3.602"/>
						</g>
						<g id="eye_1_">
							<path fill="#B78563" d="M427.91,485.939c-7.676-2.946-16.289,0.887-19.237,8.565c-2.946,7.679,0.889,16.288,8.568,19.238
								c7.677,2.947,16.29-0.887,19.239-8.564C439.428,497.501,435.59,488.889,427.91,485.939z"/>
							<circle cx="424.244" cy="503.396" r="11.146"/>
							<circle fill="#FFFFFF" cx="426.146" cy="501.149" r="3.604"/>
						</g>
					</g>
				</g>
				<path id="shadow_4_" fill="#895D3D" d="M689.897,275.55c36.359,41.232,56.897,98.262,59.788,156.42
					c4.432,89.15-30.588,180.484-30.588,180.484c-32.348,20.517-72.202,26.596-110.442,25.793
					c39.565-15.886,72.999-42.959,72.999-42.959C767.486,380.847,691.414,277.578,689.897,275.55z M531.934,214.919
					c-54.609,6.319-108.026,34.958-149.091,76.247c-62.943,63.295-98.023,154.605-98.023,154.605
					c10.316,36.888,35.868,68.073,64.825,93.063c-18.778-38.281-25.513-80.767-25.513-80.767
					C403.822,241.267,529.45,215.414,531.934,214.919z"/>
			</g>
			<g>
				<g id="arm_1_">
					<path id="arm_4_" opacity="0.1" enable-background="new    " d="M270.168,459.087c-44.305,21.708-51.755,68.231-42.797,93.142
						c3.224,8.962,54.855,39.102,127.788,76.03c17.384-34.335,10.507-100.829,10.507-100.829S338.335,425.684,270.168,459.087z"/>
					<g>
						<g>
							<path fill="#D38A09" d="M383.998,643.816c-4.279-1.306-15.699-22.149-15.699-22.149l-7.183-2.193
								c-1.097-2.842-8.837-24.952-8.121-27.301c0.718-2.347-1.851-3.338-1.851-3.338s-1.518-0.466-4.279-1.308
								c-2.763-0.842-4.148-4.239-4.482-6.607c-0.336-2.369-8.941-5.854-13.08-5.157c-4.139,0.699-6.865,3.641-9.687,0.515
								c-2.818-3.126-11.974-6.375-15.563-7.473c-3.593-1.098-14.456-3.66-20.078-2.055c-5.627,1.605-6.67,1.285-9.02,0.568
								c-3.383-1.034-3.775-0.548-2.004-6.35c0.548-1.795,4.6-15.054,6.116-20.025c1.521-4.974,4.374-7.841,11.505-5.965
								c7.125,1.873,46.422,17.135,46.422,17.135c2.336,0.914,3.919-0.142,3.919-0.142s5.52-4.719,6.899-6.111
								c1.382-1.389,3.165-0.969,3.165-0.969l8.839,2.699c0,0,55.107,12.023,59.251,13.289c4.144,1.265,1.927,8.165,1.927,8.165
								l-22.019,72.093C395.965,642.783,388.278,645.126,383.998,643.816z"/>
							<path opacity="0.1" enable-background="new    " d="M390.903,554.254c-2.878,2.313-5.172,5.46-6.329,9.25
								c-3.07,10.051,2.492,20.693,12.543,23.762c7.723,2.358,15.932-0.413,20.301-6.512l-1.74,5.713
								c-5.05,4.202-12.426,5.694-19.405,3.562c-11.573-3.536-17.878-15.759-14.343-27.332c1.102-3.607,3.054-6.727,5.567-9.2
								C388.651,553.755,389.751,553.996,390.903,554.254z M421.87,567.047c0.218-1.895,0.153-4.534-1.573-5.748
								C421.111,563.109,421.65,565.046,421.87,567.047z"/>
							<path opacity="0.1" enable-background="new    " d="M366.812,548.884c-1.402,2.538-2.627,5.239-3.507,8.123
								c-6.804,22.273,5.618,45.807,27.893,52.606c5.749,1.757,11.699,2.259,16.953,1.495l8.71-28.524
								c-3.593,3.55-8.376,5.661-13.47,5.692c2.083-9.596,10.614-12.764,16.027-14.061l1.577-5.172c0,0,2.251-7.014-1.892-8.279
								c-0.104-0.029-0.006,0.002-0.173-0.046c-7.575,1.163-12.196-0.69-15.009-3.52
								C391.91,554.466,375.846,550.889,366.812,548.884z M387.324,559.699c8.332,9.403,5.881,17.965,2.873,23.061
								c-4.756-4.828-6.793-12.046-4.676-18.966C385.968,562.33,386.581,560.962,387.324,559.699z"/>
							<path fill="#EF9F00" d="M360.325,547.57c-0.362-0.079-0.509,0.02-0.509,0.02l-8.839-2.7c0,0-1.802-0.426-3.181,0.965
								c-1.383,1.389-6.9,6.047-6.9,6.047s-1.631,1.074-3.967,0.159c0,0-39.229-15.221-46.355-17.095
								c-7.129-1.874-9.986,1.007-11.507,5.98c-1.519,4.972-5.568,18.232-6.116,20.025c-1.771,5.801-1.384,5.328,2.004,6.359
								c2.345,0.718,3.464,1.071,9.086-0.535c5.623-1.605,16.445,0.967,20.037,2.066c3.592,1.096,12.714,4.377,15.534,7.503
								c2.82,3.124,5.514,0.253,9.652-0.441c4.14-0.701,12.786,2.638,13.122,5.002c0.332,2.366,1.713,5.764,4.477,6.605
								c2.763,0.842,4.278,1.308,4.278,1.308s2.213,0.443,1.852,1.627c0.002-0.007,0.097-0.316,0.097-0.316L360.325,547.57z"/>
							<path fill="#E29000" d="M279.069,540.944c-0.272,0.884-0.623,2.035-1.019,3.337c24.197,7.008,60.258,20.771,60.258,20.771
								l15.708-19.234l-3.037-0.929c0,0-1.801-0.426-3.182,0.965c-1.381,1.389-6.901,6.047-6.901,6.047s-1.629,1.074-3.965,0.159
								c0,0-39.228-15.221-46.354-17.095C283.445,533.091,280.588,535.972,279.069,540.944z"/>
							
								<rect id="glass" x="417.208" y="610.769" transform="matrix(-0.1639 0.9865 -0.9865 -0.1639 1111.8174 324.2121)" opacity="0.2" fill="#FFFFFF" enable-background="new    " width="2.599" height="45.056"/>
							<path display="none" fill="#9B9B9B" d="M395.837,639.271c0,0-2.126-1.857-3.518,2.701c-1.391,4.557,5.637,10.63,5.637,10.63
								C394.913,649.379,395.837,639.271,395.837,639.271"/>
							
								<rect x="385.748" y="591.696" transform="matrix(-0.1354 -0.9908 0.9908 -0.1354 -170.0528 1079.9792)" fill="#E5B486" width="0.865" height="44.978"/>
							<path opacity="0.1" enable-background="new    " d="M395.738,616.261c0,0-0.928-1.338-3.625-1.406
								c-2.697-0.071-25.502-2.052-25.502-2.052s-2.845-0.115-3.773,2.925c-0.336,1.096-0.845,2.766-1.195,3.91l6.655,2.032
								c0,0,11.703,20.928,15.983,22.235c2.202,0.672,5.295,0.091,8.145-0.494c0.893-0.95,1.459-2.02,1.459-2.02l2.617-8.561
								l0.082-0.277l2.582-8.454c0,0,0.391-2.598-0.749-4.305C397.275,618.089,395.738,616.261,395.738,616.261z"/>
							<g>
								<path fill="#E5B486" d="M375.095,615.726c-8.224-2.516-16.957,2.131-19.471,10.356c-2.512,8.224,2.135,16.959,10.36,19.471
									c8.226,2.513,16.959-2.135,19.47-10.36C387.967,626.971,383.32,618.235,375.095,615.726z M374.845,616.551
									c7.778,2.377,12.161,10.61,9.786,18.39c-2.377,7.778-10.612,12.162-18.392,9.787c-7.78-2.377-12.162-10.61-9.786-18.393
									C358.829,618.556,367.062,614.175,374.845,616.551z"/>
								<path fill="#9B9B9B" d="M374.842,616.551c-7.777-2.377-16.015,2.006-18.391,9.786c-2.375,7.781,2.006,16.016,9.788,18.392
									c7.779,2.375,16.013-2.009,18.392-9.788C387.004,627.161,382.623,618.928,374.842,616.551z M374,619.313
									c6.244,1.904,9.772,8.539,7.865,14.781c-1.906,6.244-8.535,9.774-14.78,7.869c-6.246-1.906-9.774-8.539-7.871-14.784
									C361.121,620.936,367.754,617.405,374,619.313z"/>
							</g>
							<g>
								<path fill="#EF9F00" d="M393.304,616.726c-2.696-0.071-25.274-1.983-25.274-1.983s-2.389,0.026-3.316,3.064
									c-0.766,2.511-1.566,5.128-1.823,5.966c0,0-0.028,0.1-0.085,0.277c-0.258,0.856-1.084,3.562-1.852,6.077
									c-0.93,3.036,1.035,4.392,1.035,4.392s19.703,11.001,21.981,12.45c2.275,1.453,3.668,0.819,3.668,0.819
									s2.161-0.696,4.062-1.478c1.897-0.777,2.908-3.186,2.908-3.186l2.619-8.562l0.082-0.277l2.582-8.452
									c0,0,0.503-2.564-0.636-4.271c-1.137-1.707-2.528-3.492-2.528-3.492S395.998,616.794,393.304,616.726z"/>
								<g>
									<circle id="shadow_1_" opacity="0.1" enable-background="new    " cx="384.842" cy="630.779" r="4.476"/>
									<g>
										<circle fill="#ADADAD" cx="385.669" cy="631.033" r="4.477"/>
										<path fill="#919191" d="M386.475,628.397c1.453,0.444,2.273,1.988,1.83,3.44c-0.444,1.453-1.986,2.274-3.438,1.828
											c-1.452-0.442-2.276-1.987-1.832-3.438C383.479,628.773,385.022,627.955,386.475,628.397z"/>
										<path fill="#BABABA" d="M385.669,628.795c1.236,0,2.238,1.001,2.238,2.237c0,1.235-1.002,2.236-2.238,2.236
											c-1.233,0-2.236-1.001-2.236-2.236C383.433,629.796,384.436,628.795,385.669,628.795z"/>
									</g>
								</g>
							</g>
						</g>
						<g>
							<g>
								<path fill="#9B9B9B" d="M427.534,559.714c-27.738,8.745-26.001-14.734-26.001-14.734
									c-7.728,5.039-13.721,13.779-13.721,13.779c15.746,15.679,0.518,29.449,0.518,29.449c3.905,9.95,17.005,7.609,17.005,7.609
									c-1.31-22.898,23.302-21.422,23.302-21.422C434.632,567.621,427.534,559.714,427.534,559.714z"/>
								<g>
									<path opacity="0.1" enable-background="new    " d="M391.493,584.366c-0.61,0.925-1.214,1.704-1.727,2.315
										c1.975,1.481,4.243,2.66,6.744,3.424c2.994,0.912,6.036,1.146,8.965,0.8c0.135-1.07,0.339-2.067,0.6-3.003
										c-2.824,0.476-5.798,0.329-8.721-0.565C395.182,586.676,393.215,585.655,391.493,584.366z"/>
									<path opacity="0.1" enable-background="new    " d="M397.81,547.773c-2.229,1.88-4.208,3.918-5.807,5.728
										c2.906-2.029,6.354-3.243,9.959-3.431c-0.223-1.073-0.341-2.056-0.396-2.867
										C400.291,547.285,399.034,547.477,397.81,547.773z"/>
									<path opacity="0.1" enable-background="new    " d="M424.174,574.593c1.217-4.714,0.799-9.498-0.924-13.729
										c-1.015,0.223-1.989,0.398-2.914,0.527c1.797,4.044,2.207,8.729,0.816,13.283c-0.045,0.15-0.098,0.298-0.146,0.441
										C422.137,574.87,423.208,574.702,424.174,574.593z"/>
								</g>
								<g>
									<circle fill="#ADADAD" cx="405.155" cy="570.697" r="7.508"/>
									<path fill="#919191" d="M406.505,566.279c2.437,0.746,3.815,3.33,3.069,5.771c-0.744,2.433-3.333,3.811-5.771,3.064
										c-2.436-0.745-3.814-3.331-3.07-5.768C401.479,566.908,404.066,565.533,406.505,566.279z"/>
									<path fill="#BABABA" d="M406.252,567.104c1.979,0.606,3.1,2.708,2.495,4.689c-0.606,1.98-2.709,3.099-4.688,2.496
										c-1.979-0.605-3.1-2.709-2.495-4.689C402.169,567.62,404.272,566.5,406.252,567.104z"/>
								</g>
							</g>
							<g id="tape_1_">
								<path fill="#E5B486" d="M418.002,529.624c-22.273-6.801-45.842,5.74-52.645,28.013
									c-6.806,22.272,5.738,45.842,28.011,52.645c22.271,6.803,45.842-5.737,52.646-28.011
									C452.816,559.998,440.273,536.429,418.002,529.624z M412.096,548.958c11.574,3.538,18.117,15.831,14.582,27.408
									c-3.536,11.572-15.829,18.116-27.406,14.581c-11.574-3.537-18.113-15.83-14.578-27.406
									C388.227,551.965,400.522,545.425,412.096,548.958z"/>
								<g>
									<path fill="#BABABA" d="M412.096,548.958c-11.576-3.536-23.869,3.008-27.402,14.583
										c-3.535,11.576,3.004,23.869,14.578,27.406c11.576,3.535,23.87-3.009,27.406-14.581
										C430.213,564.789,423.67,552.495,412.096,548.958z M411.252,551.723c10.052,3.067,15.733,13.744,12.663,23.797
										c-3.069,10.051-13.747,15.731-23.799,12.663c-10.052-3.071-15.731-13.746-12.662-23.797
										C390.525,554.333,401.201,548.652,411.252,551.723z"/>
									<path fill="#878787" d="M426.678,576.365c-3.536,11.573-15.829,18.115-27.406,14.581
										c-11.574-3.538-18.113-15.83-14.578-27.406c3.533-11.575,15.829-18.119,27.402-14.583
										C423.671,552.495,430.213,564.789,426.678,576.365 M387.454,564.385c-3.069,10.051,2.61,20.726,12.662,23.797
										c10.052,3.068,20.729-2.612,23.799-12.664c3.07-10.051-2.611-20.728-12.663-23.795
										C401.201,548.652,390.525,554.333,387.454,564.385 M427.506,576.617c3.673-12.031-3.125-24.811-15.156-28.483
										c-12.033-3.677-24.813,3.122-28.486,15.155c-3.676,12.034,3.123,24.813,15.155,28.488
										C411.051,595.449,423.83,588.648,427.506,576.617L427.506,576.617z M388.283,564.638
										c2.93-9.593,13.118-15.017,22.717-12.083c9.593,2.93,15.016,13.119,12.086,22.716s-13.123,15.017-22.717,12.087
										C390.774,584.425,385.352,574.233,388.283,564.638L388.283,564.638z"/>
								</g>
							</g>
						</g>
					</g>
					<path id="arm_2_" fill="#986844" d="M260.891,459.087c-44.305,21.708-51.756,68.231-42.797,93.142
						c3.224,8.962,54.855,39.102,127.789,76.03c17.383-34.335,10.507-100.829,10.507-100.829S329.058,425.684,260.891,459.087z"/>
					<path fill="#895D3D" d="M218.094,552.23c3.224,8.962,54.855,39.102,127.789,76.028
						c-34.834-49.85-125.657-124.414-126.016-124.71C213.241,521.296,213.537,539.558,218.094,552.23z"/>
				</g>
			</g>
			<path fill="#D6A67F" d="M196.103,488.498c5.428,21.766,19.1,47.357,19.1,47.357c48.27-22.228,68.646-34.791,122.749-30.21
				l-27.988-46.419C249.953,451.119,196.103,488.499,196.103,488.498z"/>
		</g>
	</g>
</g>
<g id="using">
</g>
<g id="installing">
</g>
</svg>
