<?xml version="1.0" encoding="utf-8"?>
<!-- Generator: Adobe Illustrator 16.0.5, SVG Export Plug-In . SVG Version: 6.00 Build 0)  -->
<!DOCTYPE svg PUBLIC "-//W3C//DTD SVG 1.1//EN" "http://www.w3.org/Graphics/SVG/1.1/DTD/svg11.dtd">
<svg version="1.1" xmlns="http://www.w3.org/2000/svg" xmlns:xlink="http://www.w3.org/1999/xlink" x="0px" y="0px" width="896px"
	 height="979px" viewBox="0 0 896 979" enable-background="new 0 0 896 979" xml:space="preserve">
<g id="publishing">
</g>
<g id="using">
	<g id="wombat_1_">
		<g id="body_11_">
			<path id="body_12_" fill="#986844" d="M653.892,593.529c-36.402-75.888-110.89-135.668-198.195-135.669
				c-87.302,0.001-161.787,59.783-198.192,135.667c-36.402,75.889-36.437,166.809-36.437,166.809
				c79.299,53.623,234.629,57.888,234.629,57.888s155.36-4.273,234.633-57.888C690.329,760.337,690.294,669.415,653.892,593.529z"/>
			<g id="body_shadow_4_">
				<path fill="#895D3D" d="M316.286,798.965c-90.346-81.661-34.177-227.039-34.177-227.039l26.172-36.414
					c0,0-8.818,2.901-17.162,5.337c-13.277,16.135-24.612,33.913-33.615,52.68c-33.915,70.701-36.262,154.441-36.424,165.553
					c0,0.021,0,0.042,0,0.062c-0.002,0.139-0.004,0.264-0.005,0.377c0,0.023,0,0.048,0,0.068c-0.001,0.101-0.003,0.189-0.004,0.27
					c0,0.041,0,0.074,0,0.112c0,0.051-0.001,0.1-0.001,0.143c0,0.041,0,0.069-0.001,0.1c0,0.07,0,0.121,0,0.121
					C247.284,778.065,281.812,790.397,316.286,798.965C316.287,798.965,316.287,798.965,316.286,798.965z"/>
				<path fill="#895D3D" d="M595.144,798.965c90.344-81.661,34.178-227.039,34.178-227.039l-26.172-36.415
					c0,0,8.819,2.9,17.161,5.336c13.278,16.135,24.612,33.913,33.614,52.678c33.915,70.703,36.263,154.443,36.423,165.555
					c0,0.022,0,0.042,0.002,0.062c0.003,0.138,0.004,0.263,0.005,0.377c0,0.023,0.001,0.047,0.001,0.068
					c0.002,0.101,0.002,0.189,0.003,0.27c0,0.041,0.002,0.074,0.002,0.111c0,0.052,0,0.1,0.001,0.143c0,0.04,0,0.069,0,0.101
					c0,0.069,0,0.121,0,0.121C664.146,778.065,629.621,790.397,595.144,798.965L595.144,798.965z"/>
			</g>
		</g>
		<g id="npm_-_wombat_-_face_4_">
			<g id="ears_5_">
				<g id="ear_10_">
					<path fill="#986844" d="M573.882,197.572l-31.711,20.88l16.466,35.537l42.326,11.447
						C600.963,265.437,594.615,227.238,573.882,197.572z"/>
					<polygon fill="#895D3D" points="545.909,226.522 542.171,218.453 573.882,197.572 564.946,236.116 					"/>
				</g>
				<g id="ear_9_">
					<path fill="#986844" d="M337.548,197.572l31.714,20.88l-16.469,35.537l-42.326,11.447
						C310.467,265.437,316.814,227.238,337.548,197.572z"/>
					<polygon fill="#895D3D" points="365.523,226.522 369.262,218.453 337.548,197.572 346.485,236.116 					"/>
				</g>
			</g>
			<path id="head_5_" fill="#986844" d="M656.462,345.793c-36.875-83.431-112.326-149.158-200.76-149.158
				S291.817,262.361,254.94,345.794c-36.874,83.43-36.909,183.393-36.909,183.393c67.242,90.47,237.671,89.537,237.671,89.537
				s170.425,0.934,237.666-89.537C693.37,529.187,693.334,429.224,656.462,345.793z"/>
			<g id="nose_13_">
				<ellipse id="nose_15_" fill="#895D3D" cx="455.702" cy="530.524" rx="69.905" ry="33.817"/>
				<ellipse id="nose_14_" cx="455.702" cy="523.984" rx="69.905" ry="33.815"/>
			</g>
			<g id="face_5_">
				<g id="eyes_4_">
					<g id="eye_10_">
						<path fill="#B78563" d="M385.195,475.024c0,8.406-6.814,15.216-15.219,15.216s-15.218-6.81-15.218-15.216
							c0-8.405,6.812-15.218,15.218-15.218C378.383,459.806,385.195,466.618,385.195,475.024z"/>
						<circle cx="372.869" cy="477.804" r="11.392"/>
						<circle fill="#FFFFFF" cx="373.859" cy="481.181" r="3.682"/>
					</g>
					<g id="eye_9_">
						<path fill="#B78563" d="M526.951,475.024c0,8.406,6.813,15.216,15.219,15.216c8.403,0,15.218-6.81,15.218-15.216
							c0-8.405-6.816-15.218-15.218-15.218C533.764,459.806,526.951,466.618,526.951,475.024z"/>
						<circle cx="539.275" cy="477.804" r="11.392"/>
						<circle fill="#FFFFFF" cx="538.287" cy="481.181" r="3.683"/>
					</g>
				</g>
			</g>
			<path id="shadow_17_" fill="#895D3D" d="M260.042,526.518c0,0,21.984,38.071,53.917,67.716
				c-36.78-13.237-72.575-33.631-95.927-65.048c0,0,0.035-99.963,36.908-183.396c24.058-54.428,64.533-101.313,114.321-127.339
				C367.072,219.83,256.683,290.499,260.042,526.518z M651.39,526.518c0,0-21.982,38.071-53.919,67.716
				c36.781-13.237,72.574-33.631,95.927-65.048c0,0-0.034-99.962-36.907-183.394c-24.058-54.429-64.531-101.315-114.319-127.34
				C544.357,219.83,654.749,290.499,651.39,526.518z"/>
		</g>
		<g>
			<g>
				<path fill="#986844" d="M423.991,619.628c0,0-125.727-119.126-185.318-60.113c-43.726,43.304,3.181,97.977,29.866,104.028
					C332.916,678.147,396.804,646.553,423.991,619.628z"/>
				<path opacity="0.1" enable-background="new    " d="M423.991,619.628c0,0-148.616,40.624-201.513-7.061l0,0
					c6.44,25.917,29.938,47.32,46.06,50.977C332.916,678.147,396.804,646.553,423.991,619.628z"/>
			</g>
			<g>
				<path fill="#986844" d="M642.891,663.543c26.687-6.054,73.592-60.727,29.866-104.028
					c-59.592-59.013-185.317,60.113-185.317,60.113C514.627,646.553,578.515,678.147,642.891,663.543z"/>
				<path opacity="0.1" enable-background="new    " d="M642.891,663.544c16.121-3.657,39.619-25.06,46.062-50.977l0,0
					c-52.897,47.685-201.513,7.061-201.513,7.061C514.627,646.553,578.515,678.147,642.891,663.544z"/>
			</g>
		</g>
		
			<radialGradient id="SVGID_1_" cx="-710.5137" cy="-222.1895" r="169.045" gradientTransform="matrix(1 0 0 0.8 1168 708.2766)" gradientUnits="userSpaceOnUse">
			<stop  offset="0" style="stop-color:#1B91CC"/>
			<stop  offset="1" style="stop-color:#FFFFFF;stop-opacity:0"/>
		</radialGradient>
		<ellipse fill="url(#SVGID_1_)" cx="457.486" cy="530.524" rx="195.063" ry="138.214"/>
		<g id="Laptop_2_">
			<g id="Base_2_">
				<path fill="#AFAFAF" d="M455.878,651.172h-178.12v5.156c0,0,0.62,5.549,6.457,5.549c5.836,0,171.663,0,171.663,0
					s165.827,0,171.661,0c5.837,0,6.826-5.549,6.826-5.549v-5.156H455.878z"/>
				<rect x="295.823" y="647.827" fill="#333333" width="319.141" height="14.05"/>
				<path opacity="0.1" enable-background="new    " d="M614.963,647.827H295.821v3.345h-18.065v5.156c0,0,0.142,1.825,1.532,3.34
					c0.271,0.097,0.367,0.202,0.673,0.202H631.47c0.425,0,0.974-0.154,1.328-0.335c1.2-1.482,1.567-3.207,1.567-3.207v-5.156
					h-19.402V647.827L614.963,647.827z"/>
			</g>
			<g id="Lid_2_">
				<path fill="#CCCCCC" d="M651.704,499.501c0.107-0.961-1.083-1.543-2.659-1.543h-386.66c-1.576,0-2.767,0.583-2.66,1.543
					l0.006-0.038c-0.012,0.086-0.016,0.126-0.006,0.214l17.447,156.947c0.107,0.961,1.355,1.907,2.789,1.907H631.47
					c1.432,0,2.679-0.971,2.788-1.932l17.446-156.877c0.011-0.09,0.006-0.126-0.007-0.212L651.704,499.501z"/>
				<g id="Logo_1_">
					<path id="Logo_6_" opacity="0.1" enable-background="new    " d="M410.202,569.501h94.567l-0.587,20.193h-46.718l-0.003,3.244
						H436.76l-0.039-3.244h-25.976L410.202,569.501z M415.952,586.266h10.343l-0.178-10.087h5.232l0.146,10.087h5.151l-0.151-13.34
						h-20.862L415.952,586.266z M441.689,572.866l0.204,16.827h10.277l-0.008-3.36h10.428l0.054-13.468L441.689,572.866
						L441.689,572.866z M452.015,576.11h5.464l-0.006,6.852h-5.442L452.015,576.11z M467.928,572.866l-0.097,13.34h10.36
						l0.134-10.018h5.211l-0.165,10.018h5.177l0.194-9.975h5.218l-0.227,9.975h5.183l0.343-13.34H467.928z"/>
					<path id="Logo_2_" fill="#FFFFFF" d="M410.22,570.153h94.53l-0.586,20.19h-46.699l-0.003,3.245h-20.696l-0.039-3.245h-25.966
						L410.22,570.153z M415.97,586.917h10.337l-0.177-10.086h5.228l0.148,10.086h5.149l-0.151-13.339H415.65L415.97,586.917z
						 M441.695,573.518l0.201,16.826h10.275l-0.008-3.358h10.422l0.056-13.469L441.695,573.518L441.695,573.518z M452.017,576.763
						h5.462l-0.008,6.849h-5.44L452.017,576.763z M467.923,573.518l-0.097,13.34h10.355l0.134-10.015h5.21l-0.164,10.015h5.172
						l0.195-9.975h5.216l-0.228,9.975h5.182l0.346-13.34H467.923z"/>
				</g>
				<path opacity="0.1" enable-background="new    " d="M279.961,658.532H631.47c1.432,0,2.679-0.971,2.788-1.932l17.363-155.736
					c-0.298-0.693-1.311-0.901-2.576-0.901h-386.66c-1.264,0-2.278,0.113-2.576,0.807l17.363,156.024
					C277.279,657.755,278.527,658.532,279.961,658.532z"/>
			</g>
			<path opacity="0.1" enable-background="new    " d="M455.878,661.877c0,0,119.311,0,159.085,0c2.302,0,4.334,0,6.064,0
				c-45.008-18.622-102.577-29.802-165.328-29.802s-120.322,11.18-165.33,29.802c1.564,0,3.391,0,5.452,0
				C334.588,661.877,455.878,661.877,455.878,661.877z"/>
		</g>
		<path id="Belly_1_" fill="#B78563" d="M455.701,638.766c-99.882,0-186.651,28.318-230.503,69.909
			c-4.104,30.464-4.114,51.662-4.114,51.662c79.301,53.624,234.629,57.888,234.629,57.888s155.362-4.273,234.633-57.888
			c0,0-0.014-21.183-4.111-51.63C642.395,667.098,555.607,638.766,455.701,638.766z"/>
		<g id="legs_4_">
			<g id="leg_9_">
				<path fill="#986844" d="M358.244,701.296c0-0.002-0.001-0.002-0.001-0.004c-13.462-24.324-42.103-41.119-75.261-41.119
					c-46.088,0-83.452,32.447-83.452,72.469c0,35.168,28.61,66.958,65.973,72.714c37.361,5.752,110.247,5.149,110.247,5.149
					C393.65,797.413,373.554,728.494,358.244,701.296z"/>
				<g id="shadow_16_">
					<path fill="#895D3D" d="M282.981,806.358c-104.604-61.878-17.639-144.535-17.609-144.562
						c-37.634,7.021-65.844,36.072-65.844,70.851c0,35.167,28.611,66.956,65.973,72.712c5.801,0.893,12.459,1.632,19.566,2.245
						C284.386,807.192,283.693,806.779,282.981,806.358z"/>
					
						<ellipse transform="matrix(-0.5 -0.866 0.866 -0.5 -273.4062 1395.203)" fill="#895D3D" cx="266.054" cy="776.526" rx="29.248" ry="26.15"/>
				</g>
				<g>
					
						<ellipse transform="matrix(-0.5 -0.866 0.866 -0.5 -273.5756 1407.1439)" fill="#7A5336" cx="269.404" cy="782.543" rx="29.246" ry="26.151"/>
					
						<ellipse transform="matrix(-0.5 -0.866 0.866 -0.5 -273.6149 1419.0127)" fill="#AF7146" cx="272.824" cy="788.492" rx="17.729" ry="15.851"/>
				</g>
			</g>
			<g id="leg_8_">
				<path fill="#986844" d="M555.385,701.296c0.001-0.002,0.001-0.002,0.003-0.004c13.463-24.324,42.104-41.119,75.258-41.119
					c46.091,0,83.452,32.447,83.452,72.469c0,35.168-28.612,66.958-65.974,72.714c-37.358,5.752-110.243,5.149-110.243,5.149
					C519.98,797.413,540.075,728.494,555.385,701.296z"/>
				<g id="shadow_15_">
					<path fill="#895D3D" d="M630.646,806.358c104.608-61.878,17.64-144.535,17.611-144.562
						c37.631,7.021,65.842,36.072,65.842,70.851c0,35.167-28.611,66.956-65.972,72.712c-5.801,0.893-12.459,1.632-19.566,2.245
						C629.242,807.192,629.935,806.779,630.646,806.358z"/>
					
						<ellipse transform="matrix(-0.5 0.866 -0.866 -0.5 1643.9258 604.0229)" fill="#895D3D" cx="647.6" cy="776.562" rx="29.246" ry="26.151"/>
				</g>
				<g>
					
						<ellipse transform="matrix(-0.5 0.866 -0.866 -0.5 1644.1311 615.9769)" fill="#7A5336" cx="644.256" cy="782.587" rx="29.247" ry="26.151"/>
					
						<ellipse transform="matrix(-0.5 0.866 -0.866 -0.5 1644.1542 627.837)" fill="#AF7146" cx="640.844" cy="788.525" rx="17.727" ry="15.85"/>
				</g>
			</g>
		</g>
	</g>
	<g>
		<g>
			<path fill="#CCCCCC" d="M713.938,819.373c0,3.211-1.843,5.95-5.106,5.95H604.399c-3.264,0-6.878-2.739-6.878-5.95v-11.626
				c0-3.211,3.614-5.841,6.878-5.841h104.432c3.264,0,5.106,2.63,5.106,5.841V819.373z"/>
			<path opacity="0.1" enable-background="new    " d="M708.831,801.906h-33.699v23.417h33.699c3.264,0,5.106-2.739,5.106-5.95
				v-11.626C713.938,804.536,712.095,801.906,708.831,801.906z"/>
		</g>
		<g id="Handle_1_">
			<path fill="#DDDDDD" d="M717.009,798.432c-5.757,0-9.793-0.75-10.194-0.827l2.939-15.218c0.151,0.027,17.692,3.164,28.496-5.815
				c6.045-5.024,9.109-13.327,9.109-24.682c0-15.909-3.418-34.876-19.7-34.876c-9.39,0-13.111,4.241-13.142,4.284l-12.466-9.214
				c0.8-1.081,8.312-10.571,25.607-10.571c10.584,0,35.201,4.91,35.201,50.377c0,16.235-4.98,28.575-14.799,36.682
				C738.158,796.744,725.647,798.43,717.009,798.432z"/>
			<path opacity="0.1" enable-background="new    " d="M717.134,788.447c7.042,0,17.033-1.333,24.629-7.645
				c7.358-6.118,11.091-15.847,11.091-28.91c0-10.493-1.409-19.098-4.19-25.573c-5.251-12.231-14.32-14.8-21.006-14.8
				c-4.767,0-8.991,0.914-12.559,2.717c-0.179,0.09-0.234,0.182-0.403,0.274l-0.758-0.647v6.831l0.696,0.604
				c0.03-0.044,3.693-4.284,13.084-4.284c16.282,0,19.67,18.967,19.67,34.876c0,11.354-2.961,19.657-9.005,24.681
				c-7.665,6.371-19.093,6.643-24.445,6.252v8.138l0.376-2.577C715.214,788.43,716.083,788.447,717.134,788.447z"/>
		</g>
		<g>
			<path fill="#DDDDDD" d="M717.283,815.205c0,3.371-2.556,6.104-5.706,6.104H599.214c-3.153,0-5.706-2.732-5.706-6.104V695.609
				c0-3.372,2.553-6.105,5.706-6.105h112.362c3.15,0,5.706,2.733,5.706,6.105L717.283,815.205L717.283,815.205z"/>
			<path id="Rectangle_1_2_" fill="#CD3632" d="M614.386,743.541h82.421v27.694h-41.211v4.449h-18.297v-4.449h-22.913V743.541z
				 M619.051,766.536h9.105v-13.837h4.578v13.837h4.535v-18.298h-18.219V766.536L619.051,766.536z M641.805,748.158l0.055,23.076
				h9.066v-4.604h9.178v-18.473H641.805z M650.815,752.608h4.78v9.395h-4.78V752.608z M664.717,748.158v18.295h9.122v-13.735h4.56
				v13.735h4.557v-13.682h4.564v13.682h4.561v-18.296L664.717,748.158L664.717,748.158z"/>
			<path opacity="0.1" enable-background="new    " d="M711.836,689.504h-34.027v131.805h34.027c3.209,0,5.447-2.603,5.447-5.812
				v-120.49C717.283,691.798,715.045,689.504,711.836,689.504z"/>
		</g>
	</g>
</g>
<g id="installing">
</g>
</svg>
